<svg viewBox="0 0 256 256" xmlns="http://www.w3.org/2000/svg">
    <style>
        .semi-bold { font: bold 100px arial}
    </style>
    <rect x="0" y="0" width="256" height="256" stroke="transparent" stroke-width="1" fill="green" fill-opacity="0" />
    <rect x="0" y="0" width="256" height="256" rx="8" fill="#721872" />
    <rect x="10" y="10" width="236" height="145" fill="white" />
    <path d=" M 169 29 C 174.003 28.126 179.994 27.641 184.5 30.5 L 184.5 30.5 L 174.5 42.5 C 171.268 42.859 170.234 45.569 170.5 48.5 L 170.5 48.5 L 179 58 L 181 59 Q 193.5 55.5 198 44 Q 202.063 48.937 200.5 59.5 Q 198.144 69.644 191 75 Q 184.167 82.167 168 80 Q 164.5 75.5 161 85 L 143 103 C 140.047 102.602 136.343 102.846 135 106 L 135 106 L 122.5 94.5 L 121.5 91.5 L 150.5 61.5 C 147.283 59.087 148.22 54.184 148.859 50.891 C 150.23 43.837 153.982 37.077 160 33 L 160 33 L 169 29 Z  M 48 32 C 59.563 37.427 69.505 45.781 76.5 56.5 L 76.5 56.5 L 135 115 L 142 109 C 142.944 118.63 151.668 120.374 158.471 125.404 C 163.825 129.365 168.567 134.13 172.5 139.5 L 172.5 139.5 L 172 141 L 136.5 140.5 L 129 130 L 127 129 L 125 130 L 123.5 126.5 L 128.5 120.5 L 69.5 61.5 C 57.862 55.979 50.034 45.765 46.5 33.5 L 46.5 33.5 L 48 32 Z  M 106 107 L 119.5 121.5 C 117.443 129.769 112.631 136.958 105 141 L 105 141 L 73.5 140.5 L 106 107 Z " fill-rule="evenodd" fill="#747474"/>
    <path d=" M 98.458 241.394 L 74.05 241.394 L 74.05 170.762 L 96.622 170.762 L 96.622 170.762 Q 102.13 170.762 106.72 171.68 L 106.72 171.68 L 106.72 171.68 Q 111.31 172.598 114.712 174.596 L 114.712 174.596 L 114.712 174.596 Q 118.114 176.594 120.004 179.942 L 120.004 179.942 L 120.004 179.942 Q 121.894 183.29 121.894 188.15 L 121.894 188.15 L 121.894 188.15 Q 121.894 193.226 119.302 197.546 L 119.302 197.546 L 119.302 197.546 Q 116.71 201.866 112.066 203.486 L 112.066 203.486 L 112.066 203.918 L 112.066 203.918 Q 117.898 205.214 121.732 209.372 L 121.732 209.372 L 121.732 209.372 Q 125.566 213.53 125.566 220.658 L 125.566 220.658 L 125.566 220.658 Q 125.566 225.95 123.514 229.838 L 123.514 229.838 L 123.514 229.838 Q 121.462 233.726 117.844 236.318 L 117.844 236.318 L 117.844 236.318 Q 114.226 238.91 109.258 240.152 L 109.258 240.152 L 109.258 240.152 Q 104.29 241.394 98.458 241.394 L 98.458 241.394 L 98.458 241.394 Z  M 86.578 180.482 L 86.578 199.922 L 95.542 199.922 L 95.542 199.922 Q 102.994 199.922 106.288 197.222 L 106.288 197.222 L 106.288 197.222 Q 109.582 194.522 109.582 189.986 L 109.582 189.986 L 109.582 189.986 Q 109.582 184.802 106.126 182.642 L 106.126 182.642 L 106.126 182.642 Q 102.67 180.482 95.758 180.482 L 95.758 180.482 L 86.578 180.482 L 86.578 180.482 Z  M 86.578 209.318 L 86.578 231.674 L 97.162 231.674 L 97.162 231.674 Q 104.938 231.674 109.15 228.812 L 109.15 228.812 L 109.15 228.812 Q 113.362 225.95 113.362 220.01 L 113.362 220.01 L 113.362 220.01 Q 113.362 214.394 109.258 211.856 L 109.258 211.856 L 109.258 211.856 Q 105.154 209.318 97.162 209.318 L 97.162 209.318 L 86.578 209.318 L 86.578 209.318 Z  M 162.502 241.394 L 149.974 241.394 L 149.974 181.346 L 129.562 181.346 L 129.562 170.762 L 182.914 170.762 L 182.914 181.346 L 162.502 181.346 L 162.502 241.394 L 162.502 241.394 Z " fill="rgb(255,255,255)"/>
</svg>
