<svg viewBox="0 0 256 256" xmlns="http://www.w3.org/2000/svg">
    <style>
        .semi-bold { font: bold 100px arial}
    </style>
    <rect x="0" y="0" width="256" height="256" stroke="transparent" stroke-width="1" fill="green" fill-opacity="0" />
    <rect x="0" y="0" width="256" height="256" rx="8" fill="#AB377A" />
    <rect x="10" y="10" width="236" height="145" fill="white" />
    <path d=" M 169 29 C 174.003 28.126 179.994 27.641 184.5 30.5 L 184.5 30.5 L 174.5 42.5 C 171.268 42.859 170.234 45.569 170.5 48.5 L 170.5 48.5 L 179 58 L 181 59 Q 193.5 55.5 198 44 Q 202.063 48.937 200.5 59.5 Q 198.144 69.644 191 75 Q 184.167 82.167 168 80 Q 164.5 75.5 161 85 L 143 103 C 140.047 102.602 136.343 102.846 135 106 L 135 106 L 122.5 94.5 L 121.5 91.5 L 150.5 61.5 C 147.283 59.087 148.22 54.184 148.859 50.891 C 150.23 43.837 153.982 37.077 160 33 L 160 33 L 169 29 Z  M 48 32 C 59.563 37.427 69.505 45.781 76.5 56.5 L 76.5 56.5 L 135 115 L 142 109 C 142.944 118.63 151.668 120.374 158.471 125.404 C 163.825 129.365 168.567 134.13 172.5 139.5 L 172.5 139.5 L 172 141 L 136.5 140.5 L 129 130 L 127 129 L 125 130 L 123.5 126.5 L 128.5 120.5 L 69.5 61.5 C 57.862 55.979 50.034 45.765 46.5 33.5 L 46.5 33.5 L 48 32 Z  M 106 107 L 119.5 121.5 C 117.443 129.769 112.631 136.958 105 141 L 105 141 L 73.5 140.5 L 106 107 Z " fill-rule="evenodd" fill="#747474"/>
    <path d=" M 44.653 234.03 L 34.045 234.03 L 34.045 183.185 L 16.762 183.185 L 16.762 174.223 L 61.937 174.223 L 61.937 183.185 L 44.653 183.185 L 44.653 234.03 L 44.653 234.03 Z  M 94.31 235.127 L 94.31 235.127 L 94.31 235.127 C 91.137 235.127 87.928 234.703 84.936 233.618 L 84.936 233.618 L 84.936 233.618 L 84.936 233.618 C 82.203 232.627 79.752 230.975 77.803 228.817 L 77.803 228.817 L 77.803 228.817 L 77.803 228.817 C 75.633 226.413 74.184 223.434 73.231 220.358 L 73.231 220.358 L 73.231 220.358 L 73.231 220.358 C 71.976 216.307 71.631 212.006 71.631 207.784 L 71.631 207.784 L 71.631 207.784 L 71.631 174.223 L 82.239 174.223 L 82.239 208.607 L 82.239 208.607 C 82.239 211.348 82.415 214.13 83.107 216.792 L 83.107 216.792 L 83.107 216.792 L 83.107 216.792 C 83.602 218.693 84.344 220.592 85.576 222.142 L 85.576 222.142 L 85.576 222.142 L 85.576 222.142 C 86.575 223.397 87.874 224.429 89.372 225.022 L 89.372 225.022 L 89.372 225.022 L 89.372 225.022 C 90.936 225.641 92.633 225.891 94.31 225.891 L 94.31 225.891 L 94.31 225.891 L 94.31 225.891 C 96.017 225.891 97.739 225.63 99.339 225.022 L 99.339 225.022 L 99.339 225.022 L 99.339 225.022 C 100.879 224.437 102.232 223.413 103.272 222.142 L 103.272 222.142 L 103.272 222.142 L 103.272 222.142 C 104.534 220.599 105.31 218.699 105.832 216.792 L 105.832 216.792 L 105.832 216.792 L 105.832 216.792 C 106.559 214.137 106.747 211.35 106.747 208.607 L 106.747 208.607 L 106.747 208.607 L 106.747 174.223 L 116.897 174.223 L 116.897 207.784 L 116.897 207.784 C 116.897 212.005 116.564 216.3 115.343 220.358 L 115.343 220.358 L 115.343 220.358 L 115.343 220.358 C 114.416 223.438 112.985 226.415 110.816 228.817 L 110.816 228.817 L 110.816 228.817 L 110.816 228.817 C 108.868 230.975 106.417 232.627 103.683 233.618 L 103.683 233.618 L 103.683 233.618 L 103.683 233.618 C 100.691 234.703 97.482 235.127 94.31 235.127 L 94.31 235.127 Z  M 141.954 234.03 L 131.803 234.03 L 131.803 174.223 L 142.686 174.223 L 161.341 207.876 L 167.468 220.587 L 167.834 220.587 L 167.834 220.587 C 167.573 217.266 167.277 213.888 166.965 210.573 L 166.965 210.573 L 166.965 210.573 L 166.965 210.573 C 166.641 207.126 166.462 203.657 166.462 200.194 L 166.462 200.194 L 166.462 200.194 L 166.462 174.223 L 176.613 174.223 L 176.613 234.03 L 165.731 234.03 L 147.075 200.377 L 140.948 187.666 L 140.582 187.666 L 140.582 187.666 C 140.838 190.982 141.132 194.323 141.451 197.633 L 141.451 197.633 L 141.451 197.633 L 141.451 197.633 C 141.78 201.038 141.954 204.455 141.954 207.876 L 141.954 207.876 L 141.954 207.876 L 141.954 234.03 L 141.954 234.03 Z  M 228.738 234.03 L 191.793 234.03 L 191.793 174.223 L 227.824 174.223 L 227.824 183.185 L 202.401 183.185 L 202.401 198.456 L 223.892 198.456 L 223.892 207.418 L 202.401 207.418 L 202.401 225.068 L 228.738 225.068 L 228.738 234.03 L 228.738 234.03 Z " fill-rule="evenodd" fill="rgb(255,255,255)"/>
</svg>
