<svg viewBox="0 0 256 256" xmlns="http://www.w3.org/2000/svg">
    <style>
        .semi-bold { font: bold 100px arial}
    </style>
    <rect x="0" y="0" width="256" height="256" stroke="transparent" stroke-width="1" fill="green" fill-opacity="0" />
    <rect x="0" y="0" width="256" height="256" rx="8" fill="#AB377A" />
    <rect x="10" y="10" width="236" height="145" fill="white" />
    <path d=" M 169 29 C 174.003 28.126 179.994 27.641 184.5 30.5 L 184.5 30.5 L 174.5 42.5 C 171.268 42.859 170.234 45.569 170.5 48.5 L 170.5 48.5 L 179 58 L 181 59 Q 193.5 55.5 198 44 Q 202.063 48.937 200.5 59.5 Q 198.144 69.644 191 75 Q 184.167 82.167 168 80 Q 164.5 75.5 161 85 L 143 103 C 140.047 102.602 136.343 102.846 135 106 L 135 106 L 122.5 94.5 L 121.5 91.5 L 150.5 61.5 C 147.283 59.087 148.22 54.184 148.859 50.891 C 150.23 43.837 153.982 37.077 160 33 L 160 33 L 169 29 Z  M 48 32 C 59.563 37.427 69.505 45.781 76.5 56.5 L 76.5 56.5 L 135 115 L 142 109 C 142.944 118.63 151.668 120.374 158.471 125.404 C 163.825 129.365 168.567 134.13 172.5 139.5 L 172.5 139.5 L 172 141 L 136.5 140.5 L 129 130 L 127 129 L 125 130 L 123.5 126.5 L 128.5 120.5 L 69.5 61.5 C 57.862 55.979 50.034 45.765 46.5 33.5 L 46.5 33.5 L 48 32 Z  M 106 107 L 119.5 121.5 C 117.443 129.769 112.631 136.958 105 141 L 105 141 L 73.5 140.5 L 106 107 Z " fill-rule="evenodd" fill="#747474"/>
    <path d=" M 66.478 244.202 L 66.478 244.202 L 66.478 244.202 C 62.062 244.202 57.649 243.42 53.553 241.751 L 53.553 241.751 L 53.553 241.751 L 53.553 241.751 C 49.591 240.137 46.027 237.658 43.134 234.508 L 43.134 234.508 L 43.134 234.508 L 43.134 234.508 C 40.013 231.111 37.746 227.014 36.17 222.697 L 36.17 222.697 L 36.17 222.697 L 36.17 222.697 C 34.3 217.574 33.607 212.083 33.607 206.651 L 33.607 206.651 L 33.607 206.651 L 33.607 206.651 C 33.607 201.23 34.338 195.762 36.225 190.661 L 36.225 190.661 L 36.225 190.661 L 36.225 190.661 C 37.848 186.277 40.181 182.132 43.357 178.682 L 43.357 178.682 L 43.357 178.682 L 43.357 178.682 C 46.311 175.473 49.922 172.913 53.943 171.217 L 53.943 171.217 L 53.943 171.217 L 53.943 171.217 C 58.044 169.486 62.478 168.654 66.924 168.654 L 66.924 168.654 L 66.924 168.654 L 66.924 168.654 C 71.155 168.654 75.408 169.474 79.181 171.439 L 79.181 171.439 L 79.181 171.439 L 79.181 171.439 C 82.416 173.124 85.479 175.235 87.984 177.902 L 87.984 177.902 L 87.984 177.902 L 81.075 186.259 L 81.075 186.259 C 79.24 184.424 77.145 182.828 74.835 181.635 L 74.835 181.635 L 74.835 181.635 L 74.835 181.635 C 72.507 180.432 69.867 179.908 67.258 179.908 L 67.258 179.908 L 67.258 179.908 L 67.258 179.908 C 64.439 179.908 61.603 180.498 59.068 181.747 L 59.068 181.747 L 59.068 181.747 L 59.068 181.747 C 56.559 182.982 54.354 184.806 52.605 186.984 L 52.605 186.984 L 52.605 186.984 L 52.605 186.984 C 50.647 189.422 49.285 192.306 48.371 195.285 L 48.371 195.285 L 48.371 195.285 L 48.371 195.285 C 47.278 198.847 46.867 202.6 46.867 206.317 L 46.867 206.317 L 46.867 206.317 L 46.867 206.317 C 46.867 213.11 48.045 220.339 52.271 225.872 L 52.271 225.872 L 52.271 225.872 L 52.271 225.872 C 55.825 230.525 61.069 232.948 66.924 232.948 L 66.924 232.948 L 66.924 232.948 L 66.924 232.948 C 69.935 232.948 72.956 232.333 75.615 230.887 L 75.615 230.887 L 75.615 230.887 L 75.615 230.887 C 78.195 229.483 80.522 227.627 82.524 225.482 L 82.524 225.482 L 82.524 225.482 L 89.433 233.617 L 89.433 233.617 C 86.594 236.881 83.15 239.61 79.237 241.472 L 79.237 241.472 L 79.237 241.472 L 79.237 241.472 C 75.261 243.364 70.867 244.202 66.478 244.202 L 66.478 244.202 Z  M 116.51 204.088 L 116.51 204.088 L 113.947 213.002 L 132.555 213.002 L 129.993 204.088 L 129.993 204.088 C 128.778 200.14 127.647 196.159 126.594 192.165 L 126.594 192.165 L 126.594 192.165 L 126.594 192.165 C 125.527 188.119 124.468 184.07 123.418 180.019 L 123.418 180.019 L 123.418 180.019 L 122.973 180.019 L 122.973 180.019 C 121.937 184.088 120.897 188.155 119.853 192.221 L 119.853 192.221 L 119.853 192.221 L 119.853 192.221 C 118.83 196.201 117.718 200.16 116.51 204.088 L 116.51 204.088 Z  M 105.255 242.865 L 92.107 242.865 L 115.841 169.991 L 130.995 169.991 L 154.73 242.865 L 141.135 242.865 L 135.453 223.142 L 110.938 223.142 L 105.255 242.865 L 105.255 242.865 Z  M 176.681 242.865 L 163.755 242.865 L 163.755 169.991 L 186.71 169.991 L 186.71 169.991 C 190.464 169.991 194.234 170.315 197.908 171.105 L 197.908 171.105 L 197.908 171.105 L 197.908 171.105 C 201.099 171.791 204.203 173.005 206.878 174.894 L 206.878 174.894 L 206.878 174.894 L 206.878 174.894 C 209.404 176.677 211.417 179.089 212.784 181.858 L 212.784 181.858 L 212.784 181.858 L 212.784 181.858 C 214.404 185.14 214.901 188.876 214.901 192.499 L 214.901 192.499 L 214.901 192.499 L 214.901 192.499 C 214.901 196.081 214.331 199.717 212.784 202.974 L 212.784 202.974 L 212.784 202.974 L 212.784 202.974 C 211.418 205.849 209.434 208.406 206.934 210.384 L 206.934 210.384 L 206.934 210.384 L 206.934 210.384 C 204.345 212.431 201.307 213.857 198.131 214.729 L 198.131 214.729 L 198.131 214.729 L 198.131 214.729 C 194.564 215.709 190.85 216.122 187.155 216.122 L 187.155 216.122 L 187.155 216.122 L 176.681 216.122 L 176.681 242.865 L 176.681 242.865 Z  M 176.681 180.354 L 176.681 205.759 L 186.153 205.759 L 186.153 205.759 C 194.793 205.759 202.198 202.008 202.198 192.499 L 202.198 192.499 L 202.198 192.499 L 202.198 192.499 C 202.198 188.906 201.262 185.004 198.02 182.972 L 198.02 182.972 L 198.02 182.972 L 198.02 182.972 C 194.425 180.72 189.839 180.354 185.707 180.354 L 185.707 180.354 L 185.707 180.354 L 176.681 180.354 L 176.681 180.354 Z " fill-rule="evenodd" fill="rgb(255,255,255)"/>
</svg>
